# xmcd CD database file
#
# Track frame offsets:
#	150
#	14418
#	25353
#	39842
#	51332
#	61872
#	74457
#	89189
#	102481
#	115529
#	127406
#	142425
#	154709
#	175073
#	188364
#	199683
#	210617
#	221288
#	231741
#	244453
#
# Disc length: 3427 seconds
#
# Revision: 0
# Processed by: cddbd v1.5.2PL0 Copyright (c) Steve Scherf et al.
# Submitted via: CDex 1.51
#
DISCID=320d6114
DTITLE=Various Artist - Pure Easy
DYEAR=2007
DGENRE=Jazz
TTITLE0=I m just a lucky so and so - Louis Armstrong and Duke Ellington
TTITLE1=The best things in life are free - Bing Crosby
TTITLE2=Angel eyes - Jack Jones
TTITLE3=Let´s face thae music and dance - The Nelson Riddle Orechestra
TTITLE4=Anything goes - Tony Bennett and Count Basie
TTITLE5=I get a kick out of you - Shirley Bassey
TTITLE6=I´ve got you under my skin - Danny Williams
TTITLE7=Love me tender - Vince Hill
TTITLE8=(I´ll be with you in) Apple Blossom time - The Andrews Sisters
TTITLE9=You don´t have to say you love me - Vikki Carr
TTITLE10=Georgia on my mind - Lou Rawls
TTITLE11=S´wondersful - Ray Anthony
TTITLE12=Words (based on last movement of Symphony 9 by Beethoven) - Andy Williams with the Royal Philharmonic Orchestra
TTITLE13=April in Paris - Dinah Shore
TTITLE14=Let´s fly away - Jeri Southern
TTITLE15=Ev´ry time we say goodbye - Sarah Vaughan
TTITLE16=The very thought of you - The four freshmen
TTITLE17=Call me Irresponsible - Dinah Washington 
TTITLE18=Cry me a river - Julie London
TTITLE19=Yesterday - Matt Monro
EXTD=YEAR: 2007
EXTT0=
EXTT1=
EXTT2=
EXTT3=
EXTT4=
EXTT5=
EXTT6=
EXTT7=
EXTT8=
EXTT9=
EXTT10=
EXTT11=
EXTT12=
EXTT13=
EXTT14=
EXTT15=
EXTT16=
EXTT17=
EXTT18=
EXTT19=
PLAYORDER=
